<?xml version="1.0" encoding="UTF-8" standalone="no"?>
<!-- Created with Inkscape (http://www.inkscape.org/) -->

<svg
   xmlns:dc="http://purl.org/dc/elements/1.1/"
   xmlns:cc="http://creativecommons.org/ns#"
   xmlns:rdf="http://www.w3.org/1999/02/22-rdf-syntax-ns#"
   xmlns:svg="http://www.w3.org/2000/svg"
   xmlns="http://www.w3.org/2000/svg"
   xmlns:sodipodi="http://sodipodi.sourceforge.net/DTD/sodipodi-0.dtd"
   xmlns:inkscape="http://www.inkscape.org/namespaces/inkscape"
   width="20"
   height="30"
   viewBox="0 0 5.2916669 7.9375001"
   version="1.1"
   id="svg8"
   inkscape:version="0.92.2 (5c3e80d, 2017-08-06)"
   sodipodi:docname="bitmex-white.svg"
   inkscape:export-filename="bitmex-white.png"
   inkscape:export-xdpi="96"
   inkscape:export-ydpi="96">
  <defs
     id="defs2" />
  <sodipodi:namedview
     id="base"
     pagecolor="#ffffff"
     bordercolor="#666666"
     borderopacity="1.0"
     inkscape:pageopacity="0.0"
     inkscape:pageshadow="2"
     inkscape:zoom="15.839192"
     inkscape:cx="16.018252"
     inkscape:cy="22.553603"
     inkscape:document-units="mm"
     inkscape:current-layer="layer1"
     showgrid="false"
     inkscape:pagecheckerboard="true"
     units="px"
     height="31px"
     inkscape:window-width="1920"
     inkscape:window-height="1015"
     inkscape:window-x="0"
     inkscape:window-y="0"
     inkscape:window-maximized="1" />
  <metadata
     id="metadata5">
    <rdf:RDF>
      <cc:Work
         rdf:about="">
        <dc:format>image/svg+xml</dc:format>
        <dc:type
           rdf:resource="http://purl.org/dc/dcmitype/StillImage" />
        <dc:title></dc:title>
      </cc:Work>
    </rdf:RDF>
  </metadata>
  <g
     inkscape:label="Layer 1"
     inkscape:groupmode="layer"
     id="layer1"
     transform="translate(0,-289.06249)">
    <g
       id="g4569"
       transform="matrix(0.12889812,0,0,0.12870384,-9.0668713,277.20001)"
       style="fill:#ffffff;fill-opacity:1;stroke:none;stroke-width:7.76391745">
      <path
         style="fill:#ffffff;fill-opacity:1;stroke:none;stroke-width:7.76391745"
         d="m 70.341377,135.20293 c 0,-0.0847 3.17076,-5.86313 7.046134,-12.84096 l 7.046133,-12.68696 h 7.792582 c 4.28592,0 7.752895,0.0961 7.704387,0.21345 -0.04851,0.11739 -1.278819,2.37901 -2.734027,5.0258 l -2.645834,4.81236 -4.7625,0.003 -4.7625,0.003 -4.36824,7.73748 -4.368241,7.73749 -2.973947,0.0748 c -1.63567,0.0412 -2.973947,0.006 -2.973947,-0.0792 z m 11.421181,-0.0768 c 0.04851,-0.11739 1.278819,-2.37901 2.734028,-5.0258 l 2.645833,-4.81236 4.7625,-0.004 4.7625,-0.004 4.365621,-7.79255 4.36563,-7.79254 2.97656,-0.0102 c 1.63711,-0.006 2.97656,0.0552 2.97656,0.13512 0,0.0799 -3.17075,5.85446 -7.04613,12.83229 l -7.046133,12.68696 h -7.792581 c -4.285921,0 -7.752895,-0.096 -7.704388,-0.21345 z"
         id="path4577"
         inkscape:connector-curvature="0" />
      <path
         style="fill:#ffffff;fill-opacity:1;stroke:none;stroke-width:7.76391745"
         d="m 70.424213,135.14115 c 0.06274,-0.10914 3.178998,-5.73484 6.925026,-12.50156 3.746029,-6.76672 6.930992,-12.45195 7.077697,-12.63385 0.397521,-0.49289 15.358947,-0.4795 15.236445,0.0136 -0.04705,0.1894 -1.205442,2.38945 -2.574206,4.88898 l -2.488662,4.54461 -4.785079,0.072 -4.785079,0.072 -4.465322,7.87136 -4.465322,7.87135 h -2.894782 c -1.59213,0 -2.843452,-0.0893 -2.780716,-0.19844 z m 11.604789,-0.14306 c 0.04748,-0.19233 1.203125,-2.3942 2.568093,-4.89305 l 2.48176,-4.54336 4.79226,-0.072 4.792259,-0.072 4.418376,-7.80521 4.41837,-7.80521 2.94717,-0.075 2.94718,-0.075 -0.69219,1.26563 c -0.3807,0.6961 -3.57522,6.44486 -7.09894,12.77501 l -6.406754,11.50938 -7.626959,0.0702 c -6.215662,0.0572 -7.610984,0.006 -7.540625,-0.27945 z"
         id="path4575"
         inkscape:connector-curvature="0" />
      <path
         style="fill:#ffffff;fill-opacity:1;stroke:none;stroke-width:7.76391745"
         d="m 82.029002,134.99809 c 0.04748,-0.19233 1.203125,-2.3942 2.568093,-4.89305 l 2.48176,-4.54336 4.79226,-0.072 4.792259,-0.072 4.418376,-7.80521 4.41837,-7.80521 2.94717,-0.075 2.94718,-0.075 -0.69219,1.26563 c -0.3807,0.6961 -3.57522,6.44486 -7.09894,12.77501 l -6.406754,11.50938 -7.626959,0.0702 c -6.215662,0.0572 -7.610984,0.006 -7.540625,-0.27945 z m -11.354138,-0.11235 c 0.06131,-0.11419 3.186982,-5.77378 6.945947,-12.57688 l 6.834481,-12.36927 h 7.642971 7.642971 l -1.20932,2.18281 c -0.665128,1.20055 -1.832986,3.34304 -2.595242,4.7611 l -1.38592,2.57828 -4.766447,10e-4 -4.766447,0.001 -4.382711,7.73906 -4.382711,7.73907 -2.844518,0.0753 c -1.564485,0.0414 -2.794359,-0.0181 -2.733054,-0.13229 z"
         id="path4573"
         inkscape:connector-curvature="0" />
      <path
         style="fill:#ffffff;fill-opacity:1;stroke:none;stroke-width:7.76391745"
         d="m 82.902161,133.42136 c 0.500008,-0.9095 1.662706,-3.02286 2.583775,-4.69635 l 1.674669,-3.04271 4.821453,-0.13229 4.821452,-0.13229 4.33664,-7.67292 4.33665,-7.67292 2.82577,-0.0753 2.82578,-0.0753 -1.14505,2.07865 c -0.62978,1.14326 -3.76442,6.80101 -6.96588,12.57278 l -5.820834,10.49412 -7.601765,0.004 -7.601765,0.004 0.909105,-1.65365 z"
         id="path4571"
         inkscape:connector-curvature="0" />
    </g>
  </g>
</svg>
